<?xml version="1.0" encoding="utf-8"?>
<!-- Generator: Adobe Illustrator 17.0.0, SVG Export Plug-In . SVG Version: 6.00 Build 0)  -->
<!DOCTYPE svg PUBLIC "-//W3C//DTD SVG 1.1//EN" "http://www.w3.org/Graphics/SVG/1.1/DTD/svg11.dtd">
<svg version="1.1" id="Layer_1" xmlns="http://www.w3.org/2000/svg" xmlns:xlink="http://www.w3.org/1999/xlink" x="0px" y="0px"
	 width="55.472px" height="44.193px" viewBox="0 0 55.472 44.193" enable-background="new 0 0 55.472 44.193" xml:space="preserve">
<g>
	<defs>
		<rect id="SVGID_1_" width="55.472" height="44.193"/>
	</defs>
	<clipPath id="SVGID_2_">
		<use xlink:href="#SVGID_1_"  overflow="visible"/>
	</clipPath>
	<g clip-path="url(#SVGID_2_)">
		<defs>
			<rect id="SVGID_3_" y="0" width="55.472" height="44.193"/>
		</defs>
		<clipPath id="SVGID_4_">
			<use xlink:href="#SVGID_3_"  overflow="visible"/>
		</clipPath>
		<g opacity="0.3" clip-path="url(#SVGID_4_)" enable-background="new    ">
			<g>
				<defs>
					<rect id="SVGID_5_" y="23.89" width="11.898" height="4.865"/>
				</defs>
				<clipPath id="SVGID_6_">
					<use xlink:href="#SVGID_5_"  overflow="visible"/>
				</clipPath>
				<path clip-path="url(#SVGID_6_)" fill="#43484D" d="M3.407,26.383c-0.083,0-0.168-0.012-0.252-0.038l-2.557-0.794
					c-0.448-0.139-0.699-0.615-0.559-1.064c0.139-0.447,0.614-0.698,1.063-0.56l2.557,0.794c0.448,0.139,0.699,0.616,0.56,1.064
					C4.105,26.149,3.77,26.383,3.407,26.383 M11.048,28.754c-0.083,0-0.168-0.012-0.252-0.038L6.975,27.53
					c-0.448-0.139-0.699-0.615-0.559-1.064c0.139-0.447,0.614-0.697,1.063-0.56l3.821,1.186c0.448,0.139,0.699,0.616,0.559,1.064
					C11.746,28.52,11.411,28.754,11.048,28.754"/>
			</g>
		</g>
		<g opacity="0.3" clip-path="url(#SVGID_4_)" enable-background="new    ">
			<g>
				<defs>
					<rect id="SVGID_7_" x="43.465" y="24.641" width="12.008" height="4.489"/>
				</defs>
				<clipPath id="SVGID_8_">
					<use xlink:href="#SVGID_7_"  overflow="visible"/>
				</clipPath>
				<path clip-path="url(#SVGID_8_)" fill="#43484D" d="M48.177,27.386c-0.074,0-0.148-0.009-0.223-0.03l-3.861-1.044
					c-0.453-0.123-0.722-0.589-0.599-1.043c0.123-0.453,0.595-0.721,1.042-0.598l3.862,1.045c0.453,0.122,0.721,0.588,0.598,1.042
					C48.894,27.136,48.551,27.386,48.177,27.386 M54.622,29.13c-0.074,0-0.148-0.01-0.222-0.03l-2.584-0.699
					c-0.453-0.123-0.722-0.59-0.599-1.043c0.123-0.453,0.593-0.722,1.042-0.598l2.584,0.699c0.453,0.123,0.722,0.59,0.599,1.043
					C55.339,28.88,54.996,29.13,54.622,29.13"/>
			</g>
		</g>
		<path clip-path="url(#SVGID_4_)" fill="#E0E7ED" d="M34.067,0.85H13.532c-1.657,0-3,1.343-3,3v36.492c0,1.657,1.343,3,3,3h28.954
			c1.657,0,3-1.343,3-3V12.523"/>
		<path clip-path="url(#SVGID_4_)" fill="#43484D" d="M42.486,44.193H13.532c-2.123,0-3.85-1.727-3.85-3.85V3.85
			c0-2.123,1.727-3.85,3.85-3.85h20.535c0.47,0,0.85,0.381,0.85,0.85c0,0.469-0.38,0.85-0.85,0.85H13.532
			c-1.186,0-2.15,0.965-2.15,2.15v36.493c0,1.185,0.964,2.15,2.15,2.15h28.954c1.186,0,2.15-0.965,2.15-2.15V12.524
			c0-0.47,0.38-0.851,0.85-0.851c0.47,0,0.85,0.381,0.85,0.851v27.819C46.336,42.466,44.609,44.193,42.486,44.193"/>
		<path clip-path="url(#SVGID_4_)" fill="#FEFEFE" d="M34.067,0.85v9.173c0,1.381,1.119,2.5,2.5,2.5h8.919L34.067,0.85z"/>
		<path clip-path="url(#SVGID_4_)" fill="#43484D" d="M34.917,2.935v7.089c0,0.91,0.74,1.65,1.65,1.65h6.899L34.917,2.935z
			 M45.486,13.374h-8.919c-1.847,0-3.349-1.503-3.349-3.35V0.851c0-0.346,0.209-0.657,0.528-0.788
			c0.321-0.13,0.688-0.054,0.929,0.193L46.094,11.93c0.239,0.244,0.308,0.608,0.176,0.923
			C46.137,13.169,45.828,13.374,45.486,13.374"/>
		<path clip-path="url(#SVGID_4_)" fill="#43484D" d="M20.271,31.763c-0.083,0-0.166-0.012-0.247-0.037l-9.739-2.965
			c-0.45-0.137-0.703-0.611-0.567-1.06c0.138-0.45,0.615-0.703,1.061-0.566l9.29,2.828l10.386-9.009
			c0.213-0.186,0.504-0.254,0.78-0.178l14.474,3.942c0.454,0.123,0.72,0.59,0.597,1.043c-0.124,0.454-0.592,0.717-1.044,0.597
			l-14.037-3.823l-10.397,9.02C20.671,31.691,20.473,31.763,20.271,31.763"/>
		<path clip-path="url(#SVGID_4_)" fill="#FEFEFE" d="M22.561,29.092c0.992,1.045,0.95,2.696-0.095,3.689
			c-1.044,0.992-2.696,0.95-3.688-0.095c-0.993-1.045-0.95-2.696,0.094-3.689C19.917,28.005,21.569,28.047,22.561,29.092"/>
		<path clip-path="url(#SVGID_4_)" fill="#43484D" d="M20.668,29.13c-0.453,0-0.883,0.172-1.212,0.483
			c-0.702,0.669-0.73,1.785-0.062,2.488c0.645,0.681,1.804,0.71,2.487,0.064c0.703-0.668,0.731-1.784,0.063-2.488
			C21.608,29.324,21.155,29.13,20.668,29.13 M20.67,34.348c-0.943,0-1.858-0.392-2.508-1.076c-1.313-1.383-1.258-3.577,0.124-4.891
			c1.331-1.262,3.627-1.204,4.892,0.125c1.313,1.384,1.257,3.578-0.126,4.891C22.405,34.01,21.56,34.348,20.67,34.348"/>
		<path clip-path="url(#SVGID_4_)" fill="#FEFEFE" d="M32.833,19.8c0.992,1.045,0.95,2.696-0.095,3.689
			c-1.044,0.992-2.696,0.95-3.688-0.095c-0.993-1.045-0.95-2.696,0.094-3.689C30.189,18.713,31.841,18.755,32.833,19.8"/>
		<path clip-path="url(#SVGID_4_)" fill="#43484D" d="M30.942,19.838c-0.453,0-0.883,0.171-1.211,0.483
			c-0.342,0.324-0.536,0.761-0.548,1.231c-0.012,0.47,0.159,0.916,0.484,1.257c0.646,0.681,1.804,0.711,2.487,0.063
			c0.703-0.668,0.731-1.783,0.063-2.487C31.882,20.032,31.429,19.838,30.942,19.838 M30.942,25.056
			c-0.944,0-1.858-0.392-2.508-1.076c-0.637-0.67-0.974-1.548-0.95-2.472c0.023-0.923,0.405-1.783,1.076-2.419
			c1.327-1.264,3.628-1.204,4.89,0.125c1.313,1.384,1.257,3.578-0.126,4.891C32.678,24.718,31.833,25.056,30.942,25.056"/>
	</g>
</g>
</svg>
