<?xml version="1.0" encoding="utf-8"?>
<!-- Generator: Adobe Illustrator 17.0.0, SVG Export Plug-In . SVG Version: 6.00 Build 0)  -->
<!DOCTYPE svg PUBLIC "-//W3C//DTD SVG 1.1//EN" "http://www.w3.org/Graphics/SVG/1.1/DTD/svg11.dtd">
<svg version="1.1" id="Layer_1" xmlns="http://www.w3.org/2000/svg" xmlns:xlink="http://www.w3.org/1999/xlink" x="0px" y="0px"
	 width="52px" height="48px" viewBox="0 0 52 48" enable-background="new 0 0 52 48" xml:space="preserve">
<g>
	<defs>
		<rect id="SVGID_1_" width="52" height="48"/>
	</defs>
	<clipPath id="SVGID_2_">
		<use xlink:href="#SVGID_1_"  overflow="visible"/>
	</clipPath>
	<g clip-path="url(#SVGID_2_)">
		<defs>
			<rect id="SVGID_3_" width="52" height="48"/>
		</defs>
		<clipPath id="SVGID_4_">
			<use xlink:href="#SVGID_3_"  overflow="visible"/>
		</clipPath>
		<g opacity="0.3" clip-path="url(#SVGID_4_)">
			<g>
				<defs>
					<rect id="SVGID_5_" y="13" width="52" height="30"/>
				</defs>
				<clipPath id="SVGID_6_">
					<use xlink:href="#SVGID_5_"  overflow="visible"/>
				</clipPath>
				<path clip-path="url(#SVGID_6_)" fill="#43484D" d="M13.071,14.717H9.164c-0.466,0-0.844-0.385-0.844-0.858
					C8.319,13.385,8.698,13,9.164,13h3.907c0.465,0,0.843,0.385,0.843,0.859C13.913,14.332,13.536,14.717,13.071,14.717
					 M20.887,14.717h-3.908c-0.465,0-0.843-0.385-0.843-0.858c0-0.474,0.378-0.859,0.843-0.859h3.908
					c0.465,0,0.842,0.385,0.842,0.859C21.729,14.332,21.352,14.717,20.887,14.717 M28.701,14.717h-3.908
					c-0.465,0-0.843-0.385-0.843-0.858c0-0.474,0.378-0.859,0.843-0.859h3.908c0.465,0,0.843,0.385,0.843,0.859
					C29.545,14.332,29.167,14.717,28.701,14.717 M44.331,14.717h-3.907c-0.465,0-0.843-0.385-0.843-0.858
					c0-0.474,0.378-0.859,0.843-0.859h3.907c0.465,0,0.843,0.385,0.843,0.859C45.174,14.332,44.796,14.717,44.331,14.717
					 M1.844,16.379c-0.188,0-0.377-0.064-0.533-0.195c-0.361-0.3-0.413-0.841-0.119-1.208C2.193,13.729,3.673,13.009,5.25,13
					c0.488,0.005,0.846,0.38,0.848,0.854c0.003,0.474-0.373,0.86-0.838,0.863c-1.075,0.006-2.083,0.497-2.765,1.347
					C2.33,16.271,2.087,16.379,1.844,16.379 M50.891,17.695c-0.345,0-0.667-0.217-0.792-0.566c-0.367-1.03-1.159-1.833-2.173-2.201
					c-0.438-0.159-0.667-0.65-0.511-1.097c0.156-0.446,0.64-0.679,1.077-0.521c1.488,0.542,2.652,1.719,3.191,3.233
					c0.159,0.446-0.067,0.938-0.504,1.099C51.083,17.679,50.986,17.695,50.891,17.695 M0.842,24.103C0.378,24.103,0,23.718,0,23.244
					v-3.981c0-0.474,0.378-0.859,0.843-0.859c0.465,0,0.843,0.385,0.843,0.859v3.981C1.686,23.718,1.307,24.103,0.842,24.103
					 M51.157,25.626c-0.465,0-0.843-0.385-0.843-0.858v-3.982c0-0.474,0.378-0.859,0.843-0.859S52,20.312,52,20.786v3.982
					C52,25.241,51.622,25.626,51.157,25.626 M0.842,32.066C0.378,32.066,0,31.681,0,31.207v-3.982c0-0.473,0.378-0.858,0.843-0.858
					c0.465,0,0.843,0.385,0.843,0.858v3.982C1.686,31.681,1.307,32.066,0.842,32.066 M51.157,33.589
					c-0.465,0-0.843-0.385-0.843-0.859v-3.982c0-0.473,0.378-0.858,0.843-0.858S52,28.275,52,28.748v3.982
					C52,33.204,51.622,33.589,51.157,33.589 M1.099,39.997c-0.347,0-0.671-0.218-0.794-0.571C0.103,38.847,0,38.239,0,37.619v-2.431
					c0-0.474,0.378-0.859,0.843-0.859c0.465,0,0.843,0.385,0.843,0.859v2.431c0,0.423,0.069,0.838,0.208,1.232
					c0.156,0.446-0.073,0.937-0.511,1.096C1.289,39.982,1.194,39.997,1.099,39.997 M50.171,41.318c-0.186,0-0.373-0.062-0.529-0.191
					c-0.362-0.298-0.418-0.839-0.125-1.207c0.521-0.657,0.797-1.452,0.797-2.301v-0.908c0-0.474,0.378-0.858,0.843-0.858
					S52,36.237,52,36.711v0.908c0,1.228-0.416,2.429-1.172,3.381C50.66,41.21,50.417,41.318,50.171,41.318 M7.643,43H5.282
					c-0.62,0-1.227-0.108-1.803-0.322c-0.438-0.162-0.663-0.655-0.504-1.1c0.158-0.447,0.642-0.675,1.079-0.514
					c0.392,0.145,0.805,0.219,1.228,0.219h2.361c0.466,0,0.843,0.385,0.843,0.858C8.486,42.615,8.109,43,7.643,43 M15.458,43h-3.907
					c-0.465,0-0.843-0.385-0.843-0.859c0-0.473,0.378-0.858,0.843-0.858h3.907c0.465,0,0.842,0.385,0.842,0.858
					C16.301,42.615,15.924,43,15.458,43 M23.274,43h-3.907c-0.466,0-0.843-0.385-0.843-0.859c0-0.473,0.377-0.858,0.843-0.858h3.907
					c0.465,0,0.843,0.385,0.843,0.858C24.117,42.615,23.739,43,23.274,43 M31.089,43h-3.908c-0.465,0-0.842-0.385-0.842-0.859
					c0-0.473,0.377-0.858,0.842-0.858h3.908c0.465,0,0.843,0.385,0.843,0.858C31.931,42.615,31.553,43,31.089,43 M42.812,43
					c-0.465,0-0.843-0.385-0.843-0.859c0-0.473,0.378-0.858,0.843-0.858h3.907c0.466,0,0.869,0.384,0.869,0.858
					c0,0.474-0.352,0.859-0.817,0.859v-0.86L46.743,43H42.812z"/>
			</g>
		</g>
	</g>
	<rect x="12.17" y="13.631" clip-path="url(#SVGID_2_)" fill="#E0E7ED" width="10.75" height="28.412"/>
	<path clip-path="url(#SVGID_2_)" fill="#FEFEFE" d="M29.896,7.043h3.273H29.896z"/>
	<path clip-path="url(#SVGID_2_)" fill="#FEFEFE" d="M29.896,21.042h3.273H29.896z"/>
	<path clip-path="url(#SVGID_2_)" fill="#FEFEFE" d="M29.896,14.042h6.273H29.896z"/>
	<path clip-path="url(#SVGID_2_)" fill="#FEFEFE" d="M29.896,28.042h6.273H29.896z"/>
	<path clip-path="url(#SVGID_2_)" fill="#FEFEFE" d="M29.896,35.043h3.273H29.896z"/>
	<path clip-path="url(#SVGID_2_)" fill="#FEFEFE" d="M29.896,42.043h6.273H29.896z"/>
	<g clip-path="url(#SVGID_2_)">
		<defs>
			<rect id="SVGID_7_" width="52" height="48"/>
		</defs>
		<clipPath id="SVGID_8_">
			<use xlink:href="#SVGID_7_"  overflow="visible"/>
		</clipPath>
		<path clip-path="url(#SVGID_8_)" fill="#43484D" d="M40.339,44.106c0,1.215-0.971,2.203-2.164,2.203h-5.903
			c-0.889,0-1.612-0.736-1.612-1.641v-1.877h5.299c0.459,0,0.831-0.379,0.831-0.846S36.418,41.1,35.959,41.1H30.66v-5.27h2.369
			c0.458,0,0.83-0.379,0.83-0.845c0-0.467-0.372-0.845-0.83-0.845H30.66v-5.27h5.299c0.459,0,0.831-0.379,0.831-0.845
			c0-0.468-0.372-0.846-0.831-0.846H30.66v-5.27h2.369c0.458,0,0.83-0.378,0.83-0.845c0-0.467-0.372-0.845-0.83-0.845H30.66v-5.27
			h5.299c0.459,0,0.831-0.379,0.831-0.845c0-0.468-0.372-0.845-0.831-0.845H30.66v-5.27h2.369c0.458,0,0.83-0.379,0.83-0.846
			s-0.372-0.845-0.83-0.845H30.66V3.331c0-0.905,0.723-1.641,1.612-1.641h6.455c0.889,0,1.612,0.736,1.612,1.641V44.106z M38.727,0
			h-6.455C30.468,0,29,1.494,29,3.331v41.337C29,46.505,30.468,48,32.272,48h5.903C40.284,48,42,46.253,42,44.106V3.331
			C42,1.494,40.531,0,38.727,0"/>
		<line clip-path="url(#SVGID_8_)" fill="#FEFEFE" x1="12.92" y1="13.63" x2="22.17" y2="13.63"/>
		<line clip-path="url(#SVGID_8_)" fill="#FEFEFE" x1="12.17" y1="42.042" x2="22.92" y2="42.042"/>
		<line clip-path="url(#SVGID_8_)" fill="#FEFEFE" x1="17.545" y1="13.63" x2="17.545" y2="41.376"/>
		<line clip-path="url(#SVGID_8_)" fill="#FEFEFE" x1="17.545" y1="7.112" x2="17.545" y2="4.542"/>
		<path clip-path="url(#SVGID_8_)" fill="#43484D" d="M18.677,46.317h-3.354c-1.481,0-2.685-1.237-2.685-2.757v-0.747h8.723v0.747
			C21.361,45.08,20.157,46.317,18.677,46.317 M16.185,8.674C16.37,8.39,16.667,8.228,17,8.228c0.331,0,0.629,0.162,0.814,0.446
			l2.828,4.324h-7.286L16.185,8.674z M17.819,14.682h3.521c0.01,0.096,0.021,0.191,0.021,0.288v26.16h-3.542V14.682z M12.638,14.97
			c0-0.097,0.012-0.192,0.021-0.288h3.522V41.13h-3.543V14.97z M22.247,12.433l-3.073-4.698c-0.328-0.502-0.811-0.853-1.355-1.038
			V4.842C17.819,4.377,17.452,4,17,4c-0.452,0-0.819,0.377-0.819,0.842v1.855c-0.544,0.185-1.027,0.536-1.357,1.038l-3.072,4.698
			C11.26,13.186,11,14.063,11,14.97v28.59c0,2.448,1.938,4.44,4.323,4.44h3.354C21.061,48,23,46.008,23,43.56V14.97
			C23,14.063,22.74,13.186,22.247,12.433"/>
	</g>
</g>
</svg>
